<mxfile host="app.diagrams.net" modified="2021-11-14T22:00:26.632Z" agent="5.0 (Macintosh; Intel Mac OS X 10_15_7) AppleWebKit/537.36 (KHTML, like Gecko) Chrome/95.0.4638.69 Safari/537.36" etag="j6ogTecZYVpKnBgjmY1o" version="15.6.6" type="github">
  <diagram id="mKpxvKuC88JN-X-qujXj" name="Page-1">
    <mxGraphModel dx="1026" dy="546" grid="1" gridSize="10" guides="1" tooltips="1" connect="1" arrows="1" fold="1" page="1" pageScale="1" pageWidth="827" pageHeight="1169" math="0" shadow="0">
      <root>
        <mxCell id="0" />
        <mxCell id="1" parent="0" />
        <mxCell id="LBNcPz8VdPrFTlm8HORu-3" style="edgeStyle=orthogonalEdgeStyle;rounded=0;orthogonalLoop=1;jettySize=auto;html=1;entryX=0.5;entryY=0;entryDx=0;entryDy=0;fontSize=14;" edge="1" parent="1" source="LBNcPz8VdPrFTlm8HORu-1" target="LBNcPz8VdPrFTlm8HORu-2">
          <mxGeometry relative="1" as="geometry" />
        </mxCell>
        <mxCell id="LBNcPz8VdPrFTlm8HORu-15" style="edgeStyle=orthogonalEdgeStyle;rounded=0;orthogonalLoop=1;jettySize=auto;html=1;entryX=0.5;entryY=1;entryDx=0;entryDy=0;fontSize=14;" edge="1" parent="1" source="LBNcPz8VdPrFTlm8HORu-1" target="LBNcPz8VdPrFTlm8HORu-6">
          <mxGeometry relative="1" as="geometry">
            <Array as="points">
              <mxPoint x="245" y="420" />
            </Array>
          </mxGeometry>
        </mxCell>
        <mxCell id="LBNcPz8VdPrFTlm8HORu-16" style="edgeStyle=orthogonalEdgeStyle;rounded=0;orthogonalLoop=1;jettySize=auto;html=1;entryX=0;entryY=0.5;entryDx=0;entryDy=0;fontSize=14;" edge="1" parent="1" source="LBNcPz8VdPrFTlm8HORu-1" target="LBNcPz8VdPrFTlm8HORu-5">
          <mxGeometry relative="1" as="geometry">
            <Array as="points">
              <mxPoint x="520" y="235" />
              <mxPoint x="520" y="235" />
            </Array>
          </mxGeometry>
        </mxCell>
        <mxCell id="LBNcPz8VdPrFTlm8HORu-17" style="edgeStyle=orthogonalEdgeStyle;rounded=0;orthogonalLoop=1;jettySize=auto;html=1;entryX=0;entryY=0.5;entryDx=0;entryDy=0;fontSize=14;" edge="1" parent="1" source="LBNcPz8VdPrFTlm8HORu-1" target="LBNcPz8VdPrFTlm8HORu-8">
          <mxGeometry relative="1" as="geometry">
            <Array as="points">
              <mxPoint x="520" y="295" />
              <mxPoint x="520" y="295" />
            </Array>
          </mxGeometry>
        </mxCell>
        <mxCell id="LBNcPz8VdPrFTlm8HORu-18" style="edgeStyle=orthogonalEdgeStyle;rounded=0;orthogonalLoop=1;jettySize=auto;html=1;entryX=0;entryY=0.5;entryDx=0;entryDy=0;fontSize=14;" edge="1" parent="1" source="LBNcPz8VdPrFTlm8HORu-1" target="LBNcPz8VdPrFTlm8HORu-9">
          <mxGeometry relative="1" as="geometry" />
        </mxCell>
        <mxCell id="LBNcPz8VdPrFTlm8HORu-19" style="edgeStyle=orthogonalEdgeStyle;rounded=0;orthogonalLoop=1;jettySize=auto;html=1;entryX=0;entryY=0.5;entryDx=0;entryDy=0;fontSize=14;" edge="1" parent="1" source="LBNcPz8VdPrFTlm8HORu-1" target="LBNcPz8VdPrFTlm8HORu-10">
          <mxGeometry relative="1" as="geometry">
            <Array as="points">
              <mxPoint x="520" y="415" />
              <mxPoint x="520" y="415" />
            </Array>
          </mxGeometry>
        </mxCell>
        <mxCell id="LBNcPz8VdPrFTlm8HORu-20" style="edgeStyle=orthogonalEdgeStyle;rounded=0;orthogonalLoop=1;jettySize=auto;html=1;entryX=0;entryY=0.5;entryDx=0;entryDy=0;fontSize=14;" edge="1" parent="1" source="LBNcPz8VdPrFTlm8HORu-1" target="LBNcPz8VdPrFTlm8HORu-11">
          <mxGeometry relative="1" as="geometry">
            <Array as="points">
              <mxPoint x="520" y="475" />
              <mxPoint x="520" y="475" />
            </Array>
          </mxGeometry>
        </mxCell>
        <mxCell id="LBNcPz8VdPrFTlm8HORu-1" value="&lt;font&gt;&lt;font size=&quot;3&quot;&gt;Model&lt;/font&gt;&lt;br&gt;&lt;/font&gt;" style="rounded=1;whiteSpace=wrap;html=1;" vertex="1" parent="1">
          <mxGeometry x="370" y="210" width="130" height="290" as="geometry" />
        </mxCell>
        <mxCell id="LBNcPz8VdPrFTlm8HORu-2" value="View" style="rounded=1;whiteSpace=wrap;html=1;fontSize=14;" vertex="1" parent="1">
          <mxGeometry x="365" y="580" width="140" height="60" as="geometry" />
        </mxCell>
        <mxCell id="LBNcPz8VdPrFTlm8HORu-25" style="edgeStyle=orthogonalEdgeStyle;rounded=0;orthogonalLoop=1;jettySize=auto;html=1;fontSize=14;" edge="1" parent="1" source="LBNcPz8VdPrFTlm8HORu-5">
          <mxGeometry relative="1" as="geometry">
            <mxPoint x="500" y="235" as="targetPoint" />
          </mxGeometry>
        </mxCell>
        <mxCell id="LBNcPz8VdPrFTlm8HORu-5" value="pacman" style="rounded=1;whiteSpace=wrap;html=1;fontSize=14;" vertex="1" parent="1">
          <mxGeometry x="650" y="210" width="120" height="50" as="geometry" />
        </mxCell>
        <mxCell id="LBNcPz8VdPrFTlm8HORu-13" style="edgeStyle=orthogonalEdgeStyle;rounded=0;orthogonalLoop=1;jettySize=auto;html=1;entryX=0;entryY=0.145;entryDx=0;entryDy=0;entryPerimeter=0;fontSize=14;" edge="1" parent="1" source="LBNcPz8VdPrFTlm8HORu-6" target="LBNcPz8VdPrFTlm8HORu-1">
          <mxGeometry relative="1" as="geometry">
            <Array as="points">
              <mxPoint x="245" y="252" />
            </Array>
          </mxGeometry>
        </mxCell>
        <mxCell id="LBNcPz8VdPrFTlm8HORu-6" value="Init" style="rounded=1;whiteSpace=wrap;html=1;fontSize=14;" vertex="1" parent="1">
          <mxGeometry x="190" y="310" width="110" height="40" as="geometry" />
        </mxCell>
        <mxCell id="LBNcPz8VdPrFTlm8HORu-12" style="edgeStyle=orthogonalEdgeStyle;rounded=0;orthogonalLoop=1;jettySize=auto;html=1;entryX=0.5;entryY=0;entryDx=0;entryDy=0;fontSize=14;" edge="1" parent="1" source="LBNcPz8VdPrFTlm8HORu-7" target="LBNcPz8VdPrFTlm8HORu-1">
          <mxGeometry relative="1" as="geometry" />
        </mxCell>
        <mxCell id="LBNcPz8VdPrFTlm8HORu-7" value="Controller" style="rounded=1;whiteSpace=wrap;html=1;fontSize=14;" vertex="1" parent="1">
          <mxGeometry x="375" y="80" width="120" height="50" as="geometry" />
        </mxCell>
        <mxCell id="LBNcPz8VdPrFTlm8HORu-24" style="edgeStyle=orthogonalEdgeStyle;rounded=0;orthogonalLoop=1;jettySize=auto;html=1;fontSize=14;" edge="1" parent="1" source="LBNcPz8VdPrFTlm8HORu-8">
          <mxGeometry relative="1" as="geometry">
            <mxPoint x="500" y="295" as="targetPoint" />
          </mxGeometry>
        </mxCell>
        <mxCell id="LBNcPz8VdPrFTlm8HORu-8" value="ghostOne" style="rounded=1;whiteSpace=wrap;html=1;fontSize=14;" vertex="1" parent="1">
          <mxGeometry x="650" y="270" width="120" height="50" as="geometry" />
        </mxCell>
        <mxCell id="LBNcPz8VdPrFTlm8HORu-23" style="edgeStyle=orthogonalEdgeStyle;rounded=0;orthogonalLoop=1;jettySize=auto;html=1;fontSize=14;" edge="1" parent="1" source="LBNcPz8VdPrFTlm8HORu-9">
          <mxGeometry relative="1" as="geometry">
            <mxPoint x="500" y="355" as="targetPoint" />
          </mxGeometry>
        </mxCell>
        <mxCell id="LBNcPz8VdPrFTlm8HORu-9" value="ghostTwo" style="rounded=1;whiteSpace=wrap;html=1;fontSize=14;" vertex="1" parent="1">
          <mxGeometry x="650" y="330" width="120" height="50" as="geometry" />
        </mxCell>
        <mxCell id="LBNcPz8VdPrFTlm8HORu-22" style="edgeStyle=orthogonalEdgeStyle;rounded=0;orthogonalLoop=1;jettySize=auto;html=1;fontSize=14;" edge="1" parent="1" source="LBNcPz8VdPrFTlm8HORu-10">
          <mxGeometry relative="1" as="geometry">
            <mxPoint x="500" y="415" as="targetPoint" />
          </mxGeometry>
        </mxCell>
        <mxCell id="LBNcPz8VdPrFTlm8HORu-10" value="ghostThree" style="rounded=1;whiteSpace=wrap;html=1;fontSize=14;" vertex="1" parent="1">
          <mxGeometry x="650" y="390" width="120" height="50" as="geometry" />
        </mxCell>
        <mxCell id="LBNcPz8VdPrFTlm8HORu-21" style="edgeStyle=orthogonalEdgeStyle;rounded=0;orthogonalLoop=1;jettySize=auto;html=1;fontSize=14;" edge="1" parent="1" source="LBNcPz8VdPrFTlm8HORu-11">
          <mxGeometry relative="1" as="geometry">
            <mxPoint x="500" y="475" as="targetPoint" />
          </mxGeometry>
        </mxCell>
        <mxCell id="LBNcPz8VdPrFTlm8HORu-11" value="ghostFour" style="rounded=1;whiteSpace=wrap;html=1;fontSize=14;" vertex="1" parent="1">
          <mxGeometry x="650" y="450" width="120" height="50" as="geometry" />
        </mxCell>
        <mxCell id="LBNcPz8VdPrFTlm8HORu-26" value="reset" style="text;html=1;strokeColor=none;fillColor=none;align=center;verticalAlign=middle;whiteSpace=wrap;rounded=0;fontSize=14;" vertex="1" parent="1">
          <mxGeometry x="260" y="225" width="70" height="20" as="geometry" />
        </mxCell>
        <mxCell id="LBNcPz8VdPrFTlm8HORu-27" value="fatal collision" style="text;html=1;strokeColor=none;fillColor=none;align=center;verticalAlign=middle;whiteSpace=wrap;rounded=0;fontSize=14;" vertex="1" parent="1">
          <mxGeometry x="255" y="420" width="80" height="40" as="geometry" />
        </mxCell>
        <mxCell id="LBNcPz8VdPrFTlm8HORu-28" value="keypress" style="text;html=1;strokeColor=none;fillColor=none;align=center;verticalAlign=middle;whiteSpace=wrap;rounded=0;fontSize=14;" vertex="1" parent="1">
          <mxGeometry x="430" y="140" width="80" height="40" as="geometry" />
        </mxCell>
        <mxCell id="LBNcPz8VdPrFTlm8HORu-29" value="update DOM" style="text;html=1;strokeColor=none;fillColor=none;align=center;verticalAlign=middle;whiteSpace=wrap;rounded=0;fontSize=14;" vertex="1" parent="1">
          <mxGeometry x="425" y="510" width="80" height="50" as="geometry" />
        </mxCell>
        <mxCell id="LBNcPz8VdPrFTlm8HORu-30" value="update/notify/request" style="text;html=1;strokeColor=none;fillColor=none;align=center;verticalAlign=middle;whiteSpace=wrap;rounded=0;fontSize=14;" vertex="1" parent="1">
          <mxGeometry x="505" y="200" width="140" height="40" as="geometry" />
        </mxCell>
        <mxCell id="LBNcPz8VdPrFTlm8HORu-31" value="update/notify/request" style="text;html=1;strokeColor=none;fillColor=none;align=center;verticalAlign=middle;whiteSpace=wrap;rounded=0;fontSize=14;" vertex="1" parent="1">
          <mxGeometry x="505" y="260" width="140" height="40" as="geometry" />
        </mxCell>
        <mxCell id="LBNcPz8VdPrFTlm8HORu-32" value="update/notify/request" style="text;html=1;strokeColor=none;fillColor=none;align=center;verticalAlign=middle;whiteSpace=wrap;rounded=0;fontSize=14;" vertex="1" parent="1">
          <mxGeometry x="505" y="320" width="140" height="40" as="geometry" />
        </mxCell>
        <mxCell id="LBNcPz8VdPrFTlm8HORu-33" value="update/notify/request" style="text;html=1;strokeColor=none;fillColor=none;align=center;verticalAlign=middle;whiteSpace=wrap;rounded=0;fontSize=14;" vertex="1" parent="1">
          <mxGeometry x="505" y="380" width="140" height="40" as="geometry" />
        </mxCell>
        <mxCell id="LBNcPz8VdPrFTlm8HORu-34" value="update/notify/request" style="text;html=1;strokeColor=none;fillColor=none;align=center;verticalAlign=middle;whiteSpace=wrap;rounded=0;fontSize=14;" vertex="1" parent="1">
          <mxGeometry x="505" y="440" width="140" height="40" as="geometry" />
        </mxCell>
      </root>
    </mxGraphModel>
  </diagram>
</mxfile>
